<?xml version="1.0" encoding="UTF-8" standalone="no"?>
<!-- Generator: Adobe Illustrator 14.0.0, SVG Export Plug-In . SVG Version: 6.00 Build 43363)  -->

<svg
   xmlns:dc="http://purl.org/dc/elements/1.1/"
   xmlns:cc="http://creativecommons.org/ns#"
   xmlns:rdf="http://www.w3.org/1999/02/22-rdf-syntax-ns#"
   xmlns:svg="http://www.w3.org/2000/svg"
   xmlns="http://www.w3.org/2000/svg"
   xmlns:sodipodi="http://sodipodi.sourceforge.net/DTD/sodipodi-0.dtd"
   xmlns:inkscape="http://www.inkscape.org/namespaces/inkscape"
   version="1.1"
   id="pokemon"
   inkscape:version="0.92.5 (2060ec1f9f, 2020-04-08)"
   sodipodi:docname="pokemon_logo.svg"
   x="0px"
   y="0px"
   width="350"
   height="130"
   viewBox="0 0 350 130"
   enable-background="new 0 0 400 300"
   xml:space="preserve"><metadata
   id="metadata120"><rdf:RDF><cc:Work
       rdf:about=""><dc:format>image/svg+xml</dc:format><dc:type
         rdf:resource="http://purl.org/dc/dcmitype/StillImage" /><dc:title></dc:title></cc:Work></rdf:RDF></metadata><defs
   id="defs118" />
<sodipodi:namedview
   id="namedview103"
   borderopacity="1"
   bordercolor="#666666"
   showgrid="false"
   pagecolor="#ffffff"
   guidetolerance="10"
   inkscape:cy="5.4042115"
   gridtolerance="10"
   inkscape:cx="30.137823"
   objecttolerance="10"
   inkscape:zoom="1.4694818"
   inkscape:current-layer="pokemon"
   inkscape:window-y="32"
   inkscape:window-x="0"
   inkscape:window-height="1018"
   inkscape:window-width="1920"
   inkscape:pageshadow="2"
   inkscape:pageopacity="0"
   inkscape:window-maximized="1">
	</sodipodi:namedview>
<linearGradient
   id="polygon16_1_"
   gradientUnits="userSpaceOnUse"
   x1="473.6785"
   y1="1526.9111"
   x2="460.7612"
   y2="1502.8379"
   gradientTransform="translate(-430.1714,-1372.3711)">
	<stop
   offset="0"
   style="stop-color:#0070B6"
   id="stop3" />
	<stop
   offset="1"
   style="stop-color:#1D2C5E"
   id="stop5" />
</linearGradient>


<linearGradient
   id="polygon25_1_"
   gradientUnits="userSpaceOnUse"
   x1="631.21661"
   y1="1477.7314"
   x2="647.61243"
   y2="1460.1638"
   gradientTransform="translate(-430.1714,-1372.3711)">
	<stop
   offset="0"
   style="stop-color:#0070B6"
   id="stop10" />
	<stop
   offset="1"
   style="stop-color:#1D2C5E"
   id="stop12" />
</linearGradient>



<linearGradient
   id="polygon36_1_"
   gradientUnits="userSpaceOnUse"
   x1="559.68732"
   y1="1507.0215"
   x2="557.73212"
   y2="1490.5959"
   gradientTransform="translate(-430.1714,-1372.3711)">
	<stop
   offset="0"
   style="stop-color:#0070B6"
   id="stop18" />
	<stop
   offset="1"
   style="stop-color:#1D2C5E"
   id="stop20" />
</linearGradient>

<linearGradient
   id="polygon43_1_"
   gradientUnits="userSpaceOnUse"
   x1="738.78491"
   y1="1503.8604"
   x2="738.00421"
   y2="1489.0336"
   gradientTransform="translate(-430.1714,-1372.3711)">
	<stop
   offset="0"
   style="stop-color:#125D9E"
   id="stop24" />
	<stop
   offset="1"
   style="stop-color:#1D2C5E"
   id="stop26" />
</linearGradient>




<linearGradient
   id="polygon56_1_"
   gradientUnits="userSpaceOnUse"
   x1="684.06519"
   y1="1482.4893"
   x2="666.85931"
   y2="1509.8621"
   gradientTransform="translate(-430.1714,-1372.3711)">
	<stop
   offset="0"
   style="stop-color:#125D9E"
   id="stop33" />
	<stop
   offset="1"
   style="stop-color:#1D2C5E"
   id="stop35" />
</linearGradient>




<linearGradient
   id="path69_1_"
   gradientUnits="userSpaceOnUse"
   x1="531.79272"
   y1="1526.3926"
   x2="543.52441"
   y2="1549.4652"
   gradientTransform="translate(-430.1714,-1472.3711)">
	<stop
   offset="0"
   style="stop-color:#105FA1"
   id="stop42" />
	<stop
   offset="1"
   style="stop-color:#1D2C5E"
   id="stop44" />
</linearGradient>


<linearGradient
   id="polygon78_1_"
   gradientUnits="userSpaceOnUse"
   x1="487.5271"
   y1="1518.5186"
   x2="501.10431"
   y2="1549.993"
   gradientTransform="translate(-430.1714,-1372.3711)">
	<stop
   offset="0"
   style="stop-color:#105FA1"
   id="stop49" />
	<stop
   offset="1"
   style="stop-color:#1D2C5E"
   id="stop51" />
</linearGradient>












































<linearGradient
   id="path183_1_"
   gradientUnits="userSpaceOnUse"
   x1="703.11792"
   y1="-1576.5244"
   x2="723.65887"
   y2="-1576.5244"
   gradientTransform="matrix(1,0,0,-1,-586.1714,-1518.6855)">
	<stop
   offset="0"
   style="stop-color:#3C5AA6"
   id="stop103" />
	<stop
   offset="0.9331"
   style="stop-color:#2B73B9"
   id="stop105" />
	<stop
   offset="1"
   style="stop-color:#2A75BB"
   id="stop107" />
</linearGradient>


<g
   id="g999"
   transform="translate(-24.498431,15.74451)"><polygon
     transform="translate(0,-100)"
     style="fill:url(#polygon16_1_)"
     points="31.177,127.763 26.356,132.66 41.863,158.837 48.054,152.932 "
     id="polygon16" /><polygon
     transform="translate(0,-100)"
     style="fill:#0071b9"
     points="262.491,108.917 256.6,112.086 255.999,115.537 263.418,113.143 "
     id="polygon18" /><polygon
     transform="translate(0,-100)"
     style="fill:url(#polygon25_1_)"
     points="219.185,85.52 213.385,88.52 189.519,115.887 196.464,113.89 "
     id="polygon25" /><polygon
     transform="translate(0,-100)"
     style="fill:#1d2c5e"
     points="345.24,137.485 341.056,125.939 346.915,122.816 "
     id="polygon27" /><polygon
     transform="translate(0,-100)"
     style="fill:#1d2c5e"
     points="310.732,131.033 304.647,135.346 309.854,136.411 316.501,133.185 "
     id="polygon29" /><polygon
     transform="translate(0,-100)"
     style="fill:url(#polygon36_1_)"
     points="131.052,116.592 125.127,119.77 125.96,136.769 133.226,133.832 "
     id="polygon36" /><polygon
     transform="translate(0,-100)"
     style="fill:url(#polygon43_1_)"
     points="304.433,117.854 304.647,135.346 310.536,132.328 312.383,123.862 310.282,114.697 "
     id="polygon43" /><polygon
     transform="translate(0,-100)"
     style="fill:#312370"
     points="315.35,133.375 309.479,136.46 303.038,193.673 313.335,191.643 "
     id="polygon45" /><polygon
     transform="translate(0,-100)"
     style="fill:#21386e"
     points="328.523,192.332 308.88,190.605 303.038,193.673 322.088,196.416 322.27,204.175 342.035,210.474 347.917,207.357 "
     id="polygon47" /><polygon
     transform="translate(0,-100)"
     style="fill:#21386e"
     points="253.623,180.154 256.719,185.873 261.297,183.357 262.209,190.9 290.943,195.994 296.685,192.837 257.062,168.693 228.955,173.512 223.471,178.723 248.766,182.77 "
     id="polygon49" /><polygon
     transform="translate(0,-100)"
     style="fill:url(#polygon56_1_)"
     points="233.863,115.543 223.471,178.723 229.292,175.699 239.267,140.224 239.616,112.377 "
     id="polygon56" /><polygon
     transform="translate(0,-100)"
     style="fill:#1d2c5e"
     points="189.519,115.887 193.714,120.846 189.132,123.286 189.516,124.815 200.423,117.887 195.656,112.771 "
     id="polygon58" /><polygon
     transform="translate(0,-100)"
     style="fill:#21386e"
     points="212.075,192.326 206.243,195.476 159.385,172.264 165.267,167.816 "
     id="polygon60" /><polygon
     transform="translate(0,-100)"
     style="fill:#1d2c5e"
     points="169.604,105.933 163.788,109.088 156.687,122.555 164.19,120.282 "
     id="polygon62" /><path
     style="fill:url(#path69_1_)"
     inkscape:connector-curvature="0"
     d="m 99.382,64.717 -5.99,4.113 c 0,0 1.271,6.684 2.91,11.334 1.647,4.666 5.571,8.414 5.571,8.414 2.52,2.463 5.606,4.257 9.052,5.262 6.627,1.906 14.105,0.664 20.526,-3.432 1.68,-1.062 3.957,-2.762 5.357,-4.104 -6.309,3.83 -37.426,-21.587 -37.426,-21.587 z"
     id="path69" /><polygon
     transform="translate(0,-100)"
     style="fill:#1d2c5e"
     points="137.503,131.767 131.8,133.689 125.96,136.769 131.442,135.382 136.91,195.699 159.249,192.393 165.224,189.261 "
     id="polygon71" /><polygon
     transform="translate(0,-100)"
     style="fill:url(#polygon78_1_)"
     points="52.941,149.903 46.782,153.592 41.863,158.837 47.696,156.332 72.656,212.938 96.366,205.287 102.157,201.396 "
     id="polygon78" /><path
     style="fill:#1d2c5e"
     inkscape:connector-curvature="0"
     d="m 295.054,83.039 0.336,2.777 c 2.043,-0.229 4.188,-0.492 6.024,-1.146 2.141,-0.733 6.79,-2.806 8.558,-4.329 -0.662,0.241 -11.556,3.065 -14.918,2.698"
     id="path80" /><path
     style="fill:#1d2c5e"
     inkscape:connector-curvature="0"
     d="m 211.164,68.584 0.891,4.476 c 4.799,-0.715 8.919,-2.491 12.969,-4.925 2.541,-1.514 5.332,-3.798 6.213,-4.406 -0.623,0.396 -20.073,4.855 -20.073,4.855 z"
     id="path82" /><g
     transform="translate(-5.451,-101.686)"
     id="g84">
	<path
   style="fill:#ffcb05"
   inkscape:connector-curvature="0"
   d="m 84.595,209.256 -1.854,-4.117 -23.663,-52.815 -0.486,-1.083 -1.075,0.496 -0.719,0.33 -4.212,2.068 c -0.622,-1.041 -1.653,-2.789 -2.37,-3.999 l -9.525,-16.098 -2.491,-4.202 4.121,-2.612 c 3.896,-2.485 8.3,-4.782 13.09,-6.827 9.535,-4.063 19.268,-6.211 28.143,-6.211 2.92,0 5.745,0.237 8.399,0.698 4.423,0.505 8.515,1.957 11.895,4.208 5.037,2.815 9.002,7.184 11.241,12.353 1.84,4.248 2.197,9.221 1.029,14.382 l -0.686,3.032 2.52,-1.826 c 1.695,-1.231 3.54,-2.284 5.479,-3.128 3.353,-1.418 6.821,-2.141 10.296,-2.141 3.289,0 6.399,0.651 9.245,1.932 l 1.834,0.822 -0.184,-2.002 -0.798,-8.653 -0.128,-1.373 -1.336,0.348 -4.011,1.039 -0.703,-14.734 29.367,-9.383 -0.237,11.452 2.212,0.568 6.413,-12.292 19.207,17.037 0.802,0.712 0.781,-0.734 c 2.633,-2.473 5.752,-4.458 9.27,-5.898 l 1.471,-0.601 -1.008,-1.229 -3.463,-4.222 22.053,-25.42 11.55,17.234 -17.68,9.503 -3.926,2.112 4.457,0.095 c 8.382,0.176 15.804,3.722 20.896,9.983 l 1.842,2.271 1.187,1.458 -1.971,2.092 -1.313,1.395 -4.418,4.712 -0.822,0.875 0.891,0.802 4.14,3.727 1.604,1.441 0.342,-2.125 1.59,-9.836 0.405,-2.525 0.014,0.015 0.417,-2.579 2.372,-14.519 h 21.17 0.993 l 0.167,-0.979 0.414,-2.486 h 19.064 l 4.618,29.169 0.3,1.889 1.549,-1.123 c 1.87,-1.359 3.938,-2.477 6.146,-3.322 2.938,-1.108 5.963,-1.675 8.984,-1.675 3.595,0 7.086,0.831 10.104,2.4 0.08,0.058 0.193,0.132 0.349,0.194 l 1.434,0.576 0.169,-1.537 0.345,-3.179 0.114,-1.042 -1.026,-0.228 -3.863,-0.864 -0.188,-15.205 29.475,6.486 2.213,10.941 2.288,0.045 2.283,-9.416 24.577,5.977 -25.115,75.695 -17.974,-5.644 -0.127,-6.974 -0.018,-1 -0.992,-0.139 -17.936,-2.529 1.017,-9.117 0.241,-2.168 -1.94,0.994 c -0.919,0.469 -1.81,0.86 -2.65,1.17 -2.932,1.109 -5.935,1.67 -8.926,1.67 -0.865,0 -1.732,-0.047 -2.58,-0.144 l -1.531,-0.171 0.239,1.521 1.264,8.018 -26.164,-4.613 -1.371,-11.898 -0.441,-3.813 -1.763,3.409 -3.012,5.81 -5.547,-10.238 -1.667,-3.075 -0.525,3.455 -1.209,7.926 -22.935,-3.608 1.778,-10.877 0.405,-2.494 -2.167,1.297 c -3.754,2.25 -8.064,3.941 -13.175,5.177 -1.785,0.437 -3.651,0.737 -5.553,0.896 l -1.075,0.09 v 1.08 20.524 l -45.159,-22.319 -1.697,-0.836 0.001,1.891 0.031,19.09 -20.192,2.977 -0.849,-9.168 -0.229,-2.453 -1.761,1.728 c -2.667,2.61 -5.673,4.635 -8.932,6.019 -3.333,1.416 -6.772,2.133 -10.22,2.133 -3.44,0 -6.675,-0.719 -9.612,-2.125 -5.441,-2.619 -9.366,-7.367 -11.052,-13.359 -0.802,-2.814 -1.02,-5.787 -0.646,-8.837 l 0.398,-3.25 -2.37,2.256 c -1.672,1.587 -3.471,3.103 -5.354,4.493 l -0.638,0.47 0.201,0.769 6.801,26.108 1.203,4.634 -4.556,1.447 -12.807,4.102 z m 5.748,-70.09 c -0.661,0 -1.342,0.06 -2.03,0.185 l -0.871,0.167 -1.286,0.248 0.388,1.253 0.253,0.814 3.662,11.983 0.367,1.151 0.544,1.729 1.354,-1.205 0.899,-0.801 c 3.55,-3.189 4.794,-6.428 4.045,-10.513 -0.472,-2.452 -2.37,-3.673 -3.46,-4.183 -1.143,-0.548 -2.448,-0.828 -3.865,-0.828 z m 98.173,0.394 -2.29,2.229 -6.027,5.858 -1.313,1.276 1.708,0.66 6.465,2.496 1.985,0.765 -0.41,-2.086 c -0.534,-2.694 -0.672,-5.392 -0.423,-8.016 z m 26.326,-6.662 c -2.501,0 -4.92,1.075 -6.639,2.948 -2.607,2.847 -3.114,7.047 -1.261,10.448 l 0.491,0.922 0.791,1.475 1.113,-1.247 0.715,-0.792 8.843,-10.097 0.695,-0.8 1.115,-1.282 -1.59,-0.589 -0.993,-0.366 c -1.037,-0.407 -2.152,-0.62 -3.28,-0.62 z"
   id="path86" />
</g><path
     style="fill:#7d7f68"
     inkscape:connector-curvature="0"
     d="m 222.919,46.166 c -0.085,0.074 -0.163,0.17 -0.231,0.268 0.09,-0.082 0.177,-0.152 0.269,-0.227 z"
     id="path88" /><polygon
     transform="translate(0,-100)"
     style="fill:#7d7f68"
     points="233.449,135.997 233.493,135.794 232.157,137.203 227.745,141.901 231.879,145.62 232.627,140.989 234.685,142.831 230.544,139.105 234.96,134.393 "
     id="polygon90" /><polygon
     transform="translate(0,-100)"
     style="fill:#7d7f68"
     points="234.96,134.393 230.544,139.105 234.685,142.831 236.271,132.998 "
     id="polygon92" /><path
     style="fill:#7d7f68"
     inkscape:connector-curvature="0"
     d="m 175.565,46.799 0.068,0.027 z"
     id="path94" /><path
     style="fill:#c7a008"
     inkscape:connector-curvature="0"
     d="m 200.016,50.889 c 0.354,0.357 0.027,0.102 0.423,0.371 l 2.702,-1.905 c -0.401,-0.283 -0.798,-0.588 -1.163,-0.928 -3.92,-3.571 -2.9,-11.605 -0.358,-16.002 -6.693,5.4 -6.347,13.713 -1.604,18.464"
     id="path96" /><path
     style="fill:#c7a008"
     inkscape:connector-curvature="0"
     d="m 232.627,55.386 c -4.462,3.69 -9.547,6.097 -16.267,7.72 -1.47,0.338 -2.906,0.582 -4.315,0.705 -10.665,1.049 -19.613,-3.849 -23.008,-11.791 -0.424,-0.963 -0.749,-1.936 -0.995,-2.975 -1.572,-6.69 -0.23,-12.668 3.074,-17.354 0.328,-0.455 0.672,-0.889 1.033,-1.331 -0.168,0.144 -0.341,0.268 -0.481,0.403 -1.271,1.131 -2.395,2.37 -3.351,3.725 -3.309,4.686 -4.649,10.667 -3.064,17.346 0.242,1.039 0.563,2.027 0.978,2.968 3.396,7.961 12.348,12.854 23.002,11.815 1.42,-0.137 2.854,-0.371 4.323,-0.728 6.729,-1.623 11.81,-4.021 16.271,-7.709 1.091,-0.896 2.141,-1.874 3.16,-2.942 l -0.095,-0.09 c -0.1,0.088 -0.177,0.165 -0.265,0.238"
     id="path98" /><polygon
     transform="translate(0,-100)"
     style="fill:#c7a008"
     points="157.401,134.122 157.467,135.164 169.382,118.419 168.897,117.972 "
     id="polygon100" /><polygon
     transform="translate(0,-100)"
     style="fill:#c7a008"
     points="232.627,140.989 231.879,145.62 227.745,141.901 232.157,137.203 233.493,135.794 233.449,135.997 234.96,134.393 236.271,132.998 234.685,142.831 "
     id="polygon102" /><polygon
     transform="translate(0,-100)"
     style="fill:#c7a008"
     points="215.593,97.328 221.547,105.416 225.719,103.626 218.093,93.838 "
     id="polygon104" /><path
     style="fill:#c7a008"
     inkscape:connector-curvature="0"
     d="M 106.025,29.666 C 86.766,6.204 52.063,18.815 39.59,29.789 l 0.487,0.842 c 2.867,-1.646 5.891,-3.133 9.071,-4.468 12.391,-5.292 24.201,-6.844 33.671,-5.187 3.348,0.384 6.894,1.377 9.979,3.442 4.271,2.393 7.51,5.795 9.403,10.156 3.357,7.724 0.398,17.995 -7.512,26.592 9.925,-9.102 16.713,-17.814 11.336,-31.5 z"
     id="path106" /><path
     style="fill:#c7a008"
     inkscape:connector-curvature="0"
     d="m 145.317,56.998 c -0.089,-0.426 -0.18,-0.856 -0.318,-1.273 -1.084,-3.9 -3.414,-7.015 -6.47,-9.086 -4.943,-3.358 -11.844,-4.048 -18.722,-1.145 -3.619,1.565 -6.765,3.972 -9.253,6.848 1.913,-1.646 4.099,-3.016 6.46,-4.038 6.861,-2.913 13.763,-2.225 18.724,1.129 3.056,2.074 5.366,5.187 6.475,9.083 0.122,0.418 0.218,0.855 0.313,1.297 0.294,1.482 0.432,2.98 0.374,4.518 -0.143,4.492 -1.808,9.012 -4.577,12.873 -0.445,0.611 -0.916,1.182 -1.401,1.744 1.576,-1.358 2.982,-2.863 4.185,-4.551 2.78,-3.834 4.441,-8.363 4.587,-12.882 0.062,-1.507 -0.064,-3.033 -0.377,-4.517"
     id="path108" /><path
     style="fill:#c7a008"
     inkscape:connector-curvature="0"
     d="m 126.353,51.273 c -0.025,0.043 2.794,-2.796 2.763,-2.796 -3.528,-0.135 -5.021,3.193 -5.144,3.455 0.725,-0.35 1.524,-0.577 2.381,-0.659"
     id="path110" /><path
     style="fill:#c7a008"
     inkscape:connector-curvature="0"
     d="m 133.001,55.341 c 0.144,0.479 0.218,0.954 0.218,1.476 0,0.734 -0.164,1.439 -0.46,2.09 0.563,-0.295 4.645,-2.273 3.063,-6.467 0.084,0.126 -2.924,2.888 -2.821,2.901"
     id="path112" /><path
     style="fill:#c7a008"
     inkscape:connector-curvature="0"
     d="m 116.947,57.674 c 0,-1.725 2.954,-5.91 3.875,-7.307 -4.664,2.965 -6.674,6.969 -6.674,10.122 0,5.4 4.747,9.744 10.421,9.744 2.686,0 7.603,-1.418 10.818,-6.623 -1.686,1.108 -5.97,3.764 -8.216,3.764 -5.674,-0.003 -10.224,-4.269 -10.224,-9.7"
     id="path114" /><polygon
     transform="translate(0,-100)"
     style="fill:#c7a008"
     points="159.741,159.757 156.885,162.619 156.958,184.48 160.428,184.68 "
     id="polygon116" /><polygon
     transform="translate(0,-100)"
     style="fill:#c7a008"
     points="156.859,114.123 136.968,120.996 137.038,122.937 153.482,118.041 154.702,138.981 157.445,135.137 "
     id="polygon118" /><polygon
     transform="translate(0,-100)"
     style="fill:#c7a008"
     points="182.976,131.19 186.677,128.493 171.231,114.317 169.382,118.419 "
     id="polygon120" /><path
     style="fill:#c7a008"
     inkscape:connector-curvature="0"
     d="m 184.33,54.912 -18.137,-5.997 -2.642,2.79 18.066,7.23 c 2.049,3.861 5.153,7.168 9.063,9.586 3.784,2.314 8.109,3.701 12.689,4.141 v 8.924 l 2.801,1.396 0.887,-13.404 z"
     id="path122" /><path
     style="fill:#c7a008"
     inkscape:connector-curvature="0"
     d="m 213.45,52.39 c 4.452,-1.073 7.021,-3.398 9.232,-5.956 -1.659,1.361 -9.978,3.175 -11.376,3.648 L 208.566,53 c 1.253,0.111 3.348,-0.227 4.884,-0.61"
     id="path124" /><path
     style="fill:#c7a008"
     inkscape:connector-curvature="0"
     d="m 205.35,21.552 c -8.213,1.075 -12.493,7.97 -13.201,8.81 3.034,-2.563 6.834,-4.464 11.116,-5.478 10.161,-2.458 19.122,0.641 24.66,7.487 l 3.428,-2.901 C 225.868,22.742 215.51,19.102 205.35,21.552"
     id="path126" /><path
     style="fill:#c7a008"
     inkscape:connector-curvature="0"
     d="m 232.893,55.148 c 0.991,-0.832 2.752,-1.675 3.688,-2.656 l -10.997,-9.826 c -0.841,1.007 -1.605,2.666 -2.633,3.54 z"
     id="path128" /><path
     style="fill:#c7a008"
     inkscape:connector-curvature="0"
     d="m 289.325,81.479 c -11.536,-9.48 -10.847,-29.814 -5.184,-36.267 l -5.083,-31.869 -11.117,1.436 -0.495,2.807 h 8.411 l 4.456,28.915 c -5.668,6.473 -8.407,15.142 -6.513,23.079 1.465,6.135 5.231,11.099 10.656,13.971 0.546,0.299 1.108,0.561 1.687,0.807 l 0.071,0.424 3.307,0.521 c 10e-4,-0.002 0.347,-3.548 -0.196,-3.824 z"
     id="path130" /><polygon
     transform="translate(0,-100)"
     style="fill:#c7a008"
     points="260.777,116.86 244.983,118.033 244.507,120.842 257.186,120.842 260.922,141.32 263.735,138.478 "
     id="polygon132" /><polygon
     transform="translate(0,-100)"
     style="fill:#c7a008"
     points="269.467,155.009 266.691,157.787 262.597,168.363 263.611,171.115 "
     id="polygon134" /><polygon
     transform="translate(0,-100)"
     style="fill:#c7a008"
     points="251.587,174.148 254.533,151.125 251.716,153.941 248.693,173.041 "
     id="polygon136" /><path
     style="fill:#c7a008"
     inkscape:connector-curvature="0"
     d="m 311.485,45.024 c 1.659,1.185 3.075,2.685 4.142,4.468 0.841,1.368 1.477,2.9 1.882,4.583 1.382,5.74 -0.271,11.951 -3.921,16.934 -0.368,0.507 -0.771,0.995 -1.158,1.475 1.481,-1.275 19.494,-14.561 1.896,-32.01 -19.354,-6.38 -26.683,6.247 -27.365,7.048 2.045,-1.737 4.404,-3.176 6.96,-4.153 6.548,-2.482 12.993,-1.622 17.564,1.655"
     id="path138" /><path
     style="fill:#c7a008"
     inkscape:connector-curvature="0"
     d="m 301.728,46.282 c 0.055,0.123 2.778,-2.839 2.833,-2.839 -3.442,0.142 -5.099,1.805 -4.927,2.571 -0.207,0.298 -0.374,0.593 -0.507,0.919 0.736,-0.366 2.095,-0.647 2.601,-0.651"
     id="path140" /><path
     style="fill:#c7a008"
     inkscape:connector-curvature="0"
     d="m 308.204,50.611 c 0.123,0.461 0.184,0.944 0.172,1.465 -0.03,0.664 -0.202,1.275 -0.456,1.844 0.523,-0.235 4.696,-1.531 3.104,-6.125 0.04,0.131 -2.866,2.818 -2.82,2.816"
     id="path142" /><path
     style="fill:#c7a008"
     inkscape:connector-curvature="0"
     d="m 299.06,65.195 c 3.896,0.166 8.204,-2.228 11.293,-6.457 -7.928,1.627 -16.262,-11.575 -15.426,-12.868 -2.996,2.172 -5.646,6.36 -5.768,9.288 -0.205,5.426 4.213,9.81 9.901,10.037"
     id="path144" /><polygon
     transform="translate(0,-100)"
     style="fill:#c7a008"
     points="363.546,135.872 342.504,199.591 344.361,200.835 367.04,132.771 350.067,128.848 349.854,132.835 "
     id="polygon146" /><polygon
     transform="translate(0,-100)"
     style="fill:#c7a008"
     points="336.905,125.805 315.57,121.552 315.719,125.354 333.764,128.978 340.712,161.927 343.525,159.094 "
     id="polygon148" /><polygon
     transform="translate(0,-100)"
     style="fill:#c7a008"
     points="332.282,156.332 329.458,159.1 324.489,187.199 327.35,188.126 "
     id="polygon150" /><polygon
     transform="translate(0,-100)"
     style="fill:#c7a008"
     points="91.564,198.387 95.271,197.51 86.831,166.908 83.741,169.068 "
     id="polygon152" /><path
     style="fill:#c7a008"
     inkscape:connector-curvature="0"
     d="m 93.081,51.492 c -1.947,2.065 -6.263,6.08 -8.723,7.664 l -1.494,-4.795 -3.27,-10.512 -2.078,-7.118 -2.027,2.604 2.07,7.127 3.271,10.503 1.486,4.81 c 3.366,-2.17 8.265,-6.24 10.765,-10.283"
     id="path154" /><path
     style="fill:#7d7f68"
     inkscape:connector-curvature="0"
     d="m 212.68,33.396 c -2.663,-1.025 -6.438,-0.716 -8.475,1.513 -0.474,0.517 -1.394,1.837 -1.687,2.426 1.974,-1.569 5.483,-1.908 7.785,-1.077 z"
     id="path156" /><path
     style="fill:#7d7f68"
     inkscape:connector-curvature="0"
     d="m 90.645,42.893 c -0.3,-1.573 -1.84,-2.822 -2.595,-3.169 -1.354,-0.652 -3.689,-0.754 -5.397,-0.443 0.308,1.06 0.658,2.303 0.809,2.812 0.692,0.097 1.83,0.303 2.427,0.575 0.749,0.361 2.06,1.211 2.363,2.795 0.408,2.113 0.301,4.089 -0.581,5.693 2.416,-2.37 3.588,-4.948 2.974,-8.263"
     id="path158" /><g
     transform="translate(-5.451,-101.686)"
     id="g160">
	<g
   id="g162">
		<path
   style="fill:#3c5aa6"
   inkscape:connector-curvature="0"
   d="m 100.326,144.535 c -1.16,-6.221 -9.293,-9.648 -17.358,-5.25 l 2.079,7.119 3.27,10.521 1.492,4.793 c 6.049,-3.892 12.131,-8.567 10.517,-17.183 z m -8.012,9.565 c -0.88,-2.875 -2.812,-9.08 -2.812,-9.08 0.009,0.029 -0.38,-1.328 -0.843,-2.88 1.71,-0.306 3.354,-0.183 4.705,0.467 0.756,0.36 2.084,1.2 2.374,2.791 0.67,3.577 -0.537,6.129 -3.424,8.702 z"
   id="path164" />
	</g>
</g><g
     transform="translate(-5.451,-101.686)"
     id="g166">
	<g
   id="g168">
		<path
   style="fill:#3567b0"
   inkscape:connector-curvature="0"
   d="m 222.353,134.666 c -4.508,-4.136 -11.516,-3.814 -15.627,0.688 -4.136,4.497 -3.812,11.508 0.703,15.626 0.367,0.355 0.765,0.645 1.165,0.931 l 14.54,-16.468 c -0.256,-0.268 -0.513,-0.535 -0.781,-0.777 z m -13.73,11.582 c -1.422,-2.611 -1.135,-5.926 0.992,-8.25 2.045,-2.229 5.179,-2.863 7.851,-1.833 z"
   id="path170" />
	</g>
</g><polygon
     transform="translate(0,-100)"
     style="fill:#1e2d5f"
     points="235.929,145.8 236.331,131.171 228.28,138.93 "
     id="polygon172" /><path
     style="fill:#3466af"
     inkscape:connector-curvature="0"
     d="m 311.002,47.795 c 0.122,0.488 0.187,0.972 0.17,1.487 -0.134,3.076 -3.026,5.451 -6.475,5.291 -3.444,-0.119 -6.152,-2.732 -6.017,-5.802 0.115,-2.876 2.68,-5.153 5.845,-5.299 -0.602,-0.136 -1.229,-0.207 -1.884,-0.229 -5.769,-0.249 -10.48,3.836 -10.681,8.92 -0.223,5.439 4.138,9.873 9.813,10.119 5.776,0.23 10.488,-3.867 10.717,-9.28 0.069,-1.879 -0.485,-3.676 -1.488,-5.207"
     id="path174" /><path
     style="fill:url(#path183_1_)"
     inkscape:connector-curvature="0"
     d="m 136.029,54.006 c 0,3.089 -2.811,5.564 -6.252,5.564 -3.449,0 -6.25,-2.478 -6.25,-5.564 0,-2.88 2.463,-5.253 5.619,-5.529 -0.604,-0.109 -1.233,-0.172 -1.884,-0.172 -5.766,0 -10.315,4.277 -10.315,9.37 0,5.437 4.552,9.698 10.225,9.698 5.771,0 10.316,-4.266 10.316,-9.698 0,-1.881 -0.622,-3.653 -1.69,-5.112 0.143,0.437 0.231,0.925 0.231,1.443"
     id="path183" /><g
     transform="translate(-5.451,-101.686)"
     id="g185">
	<g
   id="g187">
		<path
   style="fill:#3564ad"
   inkscape:connector-curvature="0"
   d="m 352.327,124.487 -2.563,10.555 -2.364,-11.687 -31.668,-6.971 0.223,17.609 4.771,1.07 -0.345,3.176 c -0.062,-0.024 -0.101,-0.062 -0.134,-0.089 -5.916,-3.122 -13.251,-3.442 -20.152,-0.834 -2.314,0.885 -4.465,2.05 -6.416,3.466 l -4.776,-30.158 h -21.062 l -0.579,3.468 h -22.168 l -2.531,15.502 -1.838,-2.27 c -5.372,-6.6 -13.159,-10.235 -21.786,-10.416 l 18.821,-10.115 -13.124,-19.585 -23.711,27.323 4.093,4.99 c -3.707,1.515 -6.945,3.604 -9.629,6.127 l -20.333,-18.038 -7.107,13.625 0.272,-13.094 -31.786,10.155 0.815,17.078 5.407,-1.403 0.799,8.655 c -6.179,-2.775 -13.606,-2.708 -20.494,0.204 -2.042,0.889 -3.945,1.982 -5.698,3.254 1.191,-5.272 0.909,-10.471 -1.101,-15.106 -2.373,-5.478 -6.548,-10.004 -11.667,-12.86 -3.588,-2.392 -7.865,-3.881 -12.34,-4.387 -11,-1.923 -24.208,0.051 -37.207,5.589 -4.779,2.039 -9.236,4.352 -13.258,6.914 l -5.08,3.222 3.068,5.182 9.523,16.097 c 0,0 2.914,4.932 2.934,4.928 l 5.15,-2.531 0.718,-0.328 23.666,52.816 2.283,5.077 5.284,-1.703 12.805,-4.101 5.611,-1.785 -1.481,-5.712 -6.8,-26.104 c 1.956,-1.447 3.781,-2.982 5.467,-4.592 -0.38,3.119 -0.181,6.277 0.678,9.301 1.778,6.328 5.922,11.327 11.674,14.096 6.211,2.986 13.789,2.994 20.801,0.021 3.516,-1.492 6.642,-3.669 9.293,-6.26 l 0.966,10.396 22.423,-3.303 -0.036,-20.105 46.855,23.156 V 171.58 c 1.88,-0.158 3.799,-0.455 5.728,-0.929 5.161,-1.247 9.577,-2.957 13.501,-5.308 l -1.967,12.043 25.263,3.976 1.387,-9.091 6.598,12.188 4.034,-7.771 1.474,12.76 28.644,5.05 -1.52,-9.636 c 3.921,0.442 8.054,-0.083 12.046,-1.59 0.945,-0.349 1.879,-0.774 2.772,-1.231 l -1.143,10.254 19.063,2.688 0.142,7.819 19.879,6.238 25.881,-78.006 z m -111.916,11.593 1.313,-1.396 -1.587,9.834 -4.14,-3.729 z m -16.787,-40.175 6.94,9.428 -19.842,9.836 -1.37,-2.083 z M 92.243,168.6 l 7.916,30.375 -12.813,4.093 -26.29,-58.715 c -1.431,0.752 -4.07,2.012 -6.497,3.201 l -9.52,-16.082 c 3.785,-2.418 7.937,-4.561 12.353,-6.426 12.396,-5.272 24.221,-6.845 33.679,-5.174 3.347,0.376 6.889,1.364 9.99,3.422 4.256,2.397 7.514,5.809 9.391,10.154 4.58,10.583 -3.07,25.81 -18.209,35.152 z m 58.903,-5.404 c -0.146,4.521 -1.807,9.053 -4.587,12.887 -2.644,3.707 -6.339,6.768 -10.686,8.639 -11.115,4.709 -22.231,0 -25.2,-10.553 -2.876,-10.203 3.817,-22.351 14.587,-26.991 6.878,-2.904 13.778,-2.215 18.722,1.145 3.055,2.07 5.383,5.186 6.471,9.087 0.136,0.414 0.227,0.849 0.316,1.274 0.312,1.484 0.438,3.01 0.377,4.512 z m 60.478,21.472 -46.491,-23.252 0.082,24.362 -12.027,1.64 -0.837,-10.041 c 3.713,-6.367 5.071,-13.871 3.133,-20.752 -1.063,-3.781 -3.027,-7.063 -5.698,-9.695 l -1.726,-20.475 -5.4,1.4 -0.238,-5.178 19.313,-5.751 1.186,19.92 14.227,-19.99 13.909,13.247 -19.451,20.492 18.274,7.229 c 2.041,3.868 5.155,7.155 9.063,9.577 3.777,2.33 8.104,3.709 12.683,4.161 z m -24.14,-33.688 -6.467,-2.495 6.029,-5.859 c -0.258,2.69 -0.126,5.502 0.438,8.354 z m 50.594,6.092 c -4.462,3.69 -9.547,6.097 -16.267,7.72 -1.47,0.338 -2.906,0.582 -4.315,0.705 -10.665,1.049 -19.613,-3.849 -23.008,-11.791 -0.424,-0.963 -0.749,-1.936 -0.995,-2.975 -1.572,-6.69 -0.23,-12.669 3.074,-17.354 0.952,-1.367 2.082,-2.613 3.351,-3.735 3.113,-2.778 7.087,-4.796 11.604,-5.882 10.159,-2.45 19.107,0.651 24.594,7.382 l -19.359,20.608 c 1.312,0.247 3.399,-0.097 4.941,-0.466 4.608,-1.125 7.188,-3.573 9.464,-6.238 l 7.736,6.96 2.344,2.118 c -1.016,1.05 -2.083,2.042 -3.164,2.948 z m 41.073,27.5 -4.211,-27.897 -5.956,15.392 -8.918,-19.235 h -0.101 l -3.524,22.274 -14.861,-2.586 2.089,-12.431 c 0.562,-0.527 1.113,-1.057 1.655,-1.613 l 4.817,-4.963 -4.682,-4.192 4.974,-29.602 h 14.997 l 3.753,20.493 4.207,-23.748 h 10.728 l 4.451,28.932 c -5.664,6.452 -8.416,15.127 -6.522,23.063 1.463,6.151 5.243,11.105 10.663,14 0.545,0.273 1.11,0.547 1.693,0.781 l 0.565,3.75 z m 37.039,-9.09 c -1.638,1.168 -3.441,2.157 -5.382,2.875 -3.828,1.458 -7.636,1.762 -11.027,1.087 -2.364,-0.467 -4.521,-1.389 -6.396,-2.725 -2.984,-2.157 -5.182,-5.346 -6.15,-9.348 -1.13,-4.809 -0.088,-9.943 2.498,-14.439 1.29,-2.199 2.944,-4.265 4.901,-6.046 2.184,-1.957 4.715,-3.56 7.53,-4.643 6.555,-2.446 13.02,-1.602 17.567,1.669 1.675,1.187 3.063,2.696 4.158,4.452 0.83,1.385 1.476,2.914 1.865,4.582 1.394,5.773 -0.266,11.958 -3.907,16.939 -1.56,2.127 -3.463,4.035 -5.657,5.597 z m 33.469,26.296 -10.991,-3.273 -0.958,-40.522 -5.528,31.26 -11.99,-1.913 0.858,-9.001 c 7.829,-6.616 11.98,-17.053 9.705,-26.511 -0.998,-4.188 -3.151,-7.835 -6.188,-10.607 l 1.014,-10.614 -4.533,-1.208 0.302,-5.667 20.659,4.151 6.946,32.94 7.124,-29.531 15.716,3.472 z"
   id="path196" />
	</g>
</g><g
     transform="matrix(0.93943959,0,0,0.93943959,14.793383,-93.569207)"
     id="flowRoot3115">
	<path
   inkscape:connector-curvature="0"
   d="m 360.264,210.231 v -3.256 h -1.217 v -0.436 h 2.927 v 0.436 h -1.221 v 3.256 z"
   id="path3084" />
	<path
   inkscape:connector-curvature="0"
   d="m 362.463,210.231 v -3.691 h 0.736 l 0.872,2.614 c 0.081,0.243 0.139,0.426 0.177,0.548 0.043,-0.135 0.109,-0.333 0.198,-0.593 l 0.884,-2.57 h 0.659 v 3.691 h -0.472 v -3.088 l -1.074,3.088 h -0.441 l -1.067,-3.14 v 3.14 h -0.472 z"
   id="path3086" />
</g></g>
</svg>